<svg xmlns="http://www.w3.org/2000/svg" viewBox="0 0 400 400" width="400" height="400">
  <defs>
    <linearGradient id="bgGrad" x1="0%" y1="0%" x2="0%" y2="100%">
      <stop offset="0%" stop-color="#f7f7f7"/>
      <stop offset="100%" stop-color="#e4e4e7"/>
    </linearGradient>
  </defs>
  <rect width="400" height="400" fill="url(#bgGrad)"/>
  <!-- Heat pump unit silhouette -->
  <g transform="translate(120, 100)">
    <rect x="0" y="0" width="160" height="180" rx="8" fill="#cbd5dc" stroke="#94a3b0" stroke-width="2"/>
    <rect x="14" y="14" width="132" height="100" rx="4" fill="#e4eaef" stroke="#94a3b0" stroke-width="1.5"/>
    <circle cx="80" cy="64" r="38" fill="none" stroke="#94a3b0" stroke-width="3"/>
    <g transform="translate(80, 64)">
      <g stroke="#94a3b0" stroke-width="2.5" stroke-linecap="round">
        <line x1="0" y1="-26" x2="0" y2="-12"/>
        <line x1="18.4" y1="-18.4" x2="8.5" y2="-8.5"/>
        <line x1="26" y1="0" x2="12" y2="0"/>
        <line x1="18.4" y1="18.4" x2="8.5" y2="8.5"/>
        <line x1="0" y1="26" x2="0" y2="12"/>
        <line x1="-18.4" y1="18.4" x2="-8.5" y2="8.5"/>
        <line x1="-26" y1="0" x2="-12" y2="0"/>
        <line x1="-18.4" y1="-18.4" x2="-8.5" y2="-8.5"/>
      </g>
    </g>
    <rect x="20" y="128" width="120" height="34" rx="3" fill="#e4eaef" stroke="#94a3b0" stroke-width="1.5"/>
  </g>
  <text x="200" y="320" font-family="Manrope,sans-serif" font-weight="800" font-size="28" fill="#52525b" text-anchor="middle" letter-spacing="2">AQUATECH</text>
  <text x="200" y="346" font-family="Manrope,sans-serif" font-weight="500" font-size="11" fill="#a1a1aa" text-anchor="middle" letter-spacing="1">PRODUCT IMAGE COMING SOON</text>
</svg>
